<svg viewBox="0 0 167 56" fill="none" xmlns="http://www.w3.org/2000/svg">
<path fill-rule="evenodd" clip-rule="evenodd" d="M41.7621 41.2789C49.2724 33.5018 49.0561 21.1089 41.279 13.5986C33.5018 6.0883 21.1089 6.30461 13.5986 14.0818C6.0883 21.8589 6.30462 34.2518 14.0818 41.7621C21.8589 49.2724 34.2518 49.0561 41.7621 41.2789ZM39.623 39.9748C43.2516 36.2173 43.1471 30.2297 39.3896 26.6011C35.6321 22.9726 29.6445 23.0771 26.0159 26.8346C22.3873 30.5921 22.4919 36.5797 26.2494 40.2082C30.0068 43.8368 35.9944 43.7323 39.623 39.9748Z" fill="#3023AD"/>
<path d="M61.672 41C61.432 41 61.228 40.916 61.06 40.748C60.892 40.58 60.808 40.376 60.808 40.136V16.664C60.808 16.4 60.892 16.196 61.06 16.052C61.228 15.884 61.432 15.8 61.672 15.8H65.056C65.32 15.8 65.524 15.884 65.668 16.052C65.836 16.196 65.92 16.4 65.92 16.664V36.68H77.332C77.596 36.68 77.812 36.764 77.98 36.932C78.148 37.1 78.232 37.304 78.232 37.544V40.136C78.232 40.376 78.148 40.58 77.98 40.748C77.812 40.916 77.596 41 77.332 41H61.672ZM89.3287 41.36C86.4967 41.36 84.3127 40.64 82.7767 39.2C81.2407 37.76 80.4127 35.768 80.2927 33.224L80.2567 31.64L80.2927 30.056C80.4127 27.536 81.2527 25.556 82.8127 24.116C84.3727 22.652 86.5447 21.92 89.3287 21.92C92.0887 21.92 94.2487 22.652 95.8087 24.116C97.3687 25.556 98.2087 27.536 98.3287 30.056C98.3527 30.344 98.3647 30.872 98.3647 31.64C98.3647 32.408 98.3527 32.936 98.3287 33.224C98.2087 35.768 97.3807 37.76 95.8447 39.2C94.3087 40.64 92.1367 41.36 89.3287 41.36ZM89.3287 37.724C90.6007 37.724 91.5727 37.328 92.2447 36.536C92.9407 35.744 93.3127 34.58 93.3607 33.044C93.3847 32.804 93.3967 32.336 93.3967 31.64C93.3967 30.944 93.3847 30.476 93.3607 30.236C93.3127 28.7 92.9407 27.536 92.2447 26.744C91.5487 25.928 90.5767 25.52 89.3287 25.52C88.0567 25.52 87.0727 25.928 86.3767 26.744C85.6807 27.536 85.3087 28.7 85.2607 30.236L85.2247 31.64L85.2607 33.044C85.3087 34.58 85.6807 35.744 86.3767 36.536C87.0727 37.328 88.0567 37.724 89.3287 37.724ZM103.253 41C103.013 41 102.809 40.916 102.641 40.748C102.473 40.58 102.389 40.376 102.389 40.136V16.304C102.389 16.04 102.473 15.836 102.641 15.692C102.809 15.524 103.013 15.44 103.253 15.44H106.241C106.481 15.44 106.685 15.524 106.853 15.692C107.021 15.86 107.105 16.064 107.105 16.304V28.616L113.081 22.892C113.153 22.844 113.261 22.76 113.405 22.64C113.573 22.496 113.729 22.4 113.873 22.352C114.017 22.304 114.197 22.28 114.413 22.28H117.833C118.073 22.28 118.265 22.352 118.409 22.496C118.553 22.64 118.625 22.832 118.625 23.072C118.625 23.288 118.505 23.504 118.265 23.72L110.921 30.668L119.165 39.596C119.381 39.812 119.489 40.016 119.489 40.208C119.489 40.448 119.417 40.64 119.273 40.784C119.129 40.928 118.949 41 118.733 41H115.241C114.905 41 114.653 40.964 114.485 40.892C114.341 40.796 114.149 40.628 113.909 40.388L107.105 33.152V40.136C107.105 40.376 107.021 40.58 106.853 40.748C106.685 40.916 106.481 41 106.241 41H103.253ZM123.116 41C122.876 41 122.672 40.916 122.504 40.748C122.336 40.58 122.252 40.376 122.252 40.136V16.304C122.252 16.04 122.336 15.836 122.504 15.692C122.672 15.524 122.876 15.44 123.116 15.44H126.104C126.344 15.44 126.548 15.524 126.716 15.692C126.884 15.86 126.968 16.064 126.968 16.304V28.616L132.944 22.892C133.016 22.844 133.124 22.76 133.268 22.64C133.436 22.496 133.592 22.4 133.736 22.352C133.88 22.304 134.06 22.28 134.276 22.28H137.696C137.936 22.28 138.128 22.352 138.272 22.496C138.416 22.64 138.488 22.832 138.488 23.072C138.488 23.288 138.368 23.504 138.128 23.72L130.784 30.668L139.028 39.596C139.244 39.812 139.352 40.016 139.352 40.208C139.352 40.448 139.28 40.64 139.136 40.784C138.992 40.928 138.812 41 138.596 41H135.104C134.768 41 134.516 40.964 134.348 40.892C134.204 40.796 134.012 40.628 133.772 40.388L126.968 33.152V40.136C126.968 40.376 126.884 40.58 126.716 40.748C126.548 40.916 126.344 41 126.104 41H123.116ZM142.799 19.22C142.559 19.22 142.355 19.136 142.187 18.968C142.019 18.8 141.935 18.596 141.935 18.356V15.728C141.935 15.464 142.019 15.248 142.187 15.08C142.355 14.912 142.559 14.828 142.799 14.828H146.111C146.375 14.828 146.591 14.912 146.759 15.08C146.927 15.248 147.011 15.464 147.011 15.728V18.356C147.011 18.596 146.915 18.8 146.723 18.968C146.555 19.136 146.351 19.22 146.111 19.22H142.799ZM142.943 41C142.703 41 142.499 40.916 142.331 40.748C142.163 40.58 142.079 40.376 142.079 40.136V23.144C142.079 22.88 142.163 22.676 142.331 22.532C142.499 22.364 142.703 22.28 142.943 22.28H146.003C146.243 22.28 146.447 22.364 146.615 22.532C146.783 22.7 146.867 22.904 146.867 23.144V40.136C146.867 40.376 146.783 40.58 146.615 40.748C146.447 40.916 146.243 41 146.003 41H142.943Z" fill="#3023AD"/>
</svg>
